<svg xmlns="http://www.w3.org/2000/svg" width="1920" height="183.834"><g fill="#FFF"><path opacity=".35" d="M841.436 183.834c-4.646-2.365-9.297-4.69-13.891-7.017-109.979-54.65-242.324-82.832-373.576-79.651-124.417 3.06-244.184 34.992-347.436 86.627h734.9l.003.041z"/><path d="M1920 97.76c-16.23 1.03-17.5.841-34.5 1.865-53 2.051-103.041 7.808-154.667 15.435-79.571 11.826-124.088 36.596-199.94 52.664-66.721 14.112-145.907 7.504-214.486-4.608-133.387-23.572-260.535-51.021-408.194-45.271-80.938 3.14-159.144 15.825-230.457 33.444-73.556 18.189-160.674 43.518-245.387 23.775-72.079-16.844-109.595-53.875-176.315-74.227-49.877-15.212-113.644-16.203-172.325-10.33C53.278 93.659 27.246 95.308 0 97.76v86.074h1920V97.76z"/><path opacity=".35" d="M1920 119.181c-72.5-32.357-138.5-40.811-226.082-34.657-60.923 7.138-101.01 46.495-154.604 65.665-69.619 24.877-124.197-6.894-186.487-28.266-84.059-28.793-187.91-20.962-262.888 19.822-23.188 12.643-45.393 28.549-68.472 42.089H1920v-64.653z"/><path opacity=".35" d="M1920 101.489c-12.5 1.117-19.537.205-33.75 2.33-39.177 5.832-78.088 16.31-114.893 28.096-36.807 11.787-73.774 24.227-113.313 28.916-131.907 15.619-241.012-54.488-362.855-77.083-110.416-20.474-227.396-2.773-334.584 25.532-109.104 28.794-221.764 69.211-335.188 52-79.845-12.112-146.674-51.348-220.448-77.124C274.208 38.395 135.354 100.97 0 123.116v60.718h1920v-82.345z"/></g></svg>